<svg width="196" height="44" viewBox="0 0 196 44" fill="none" xmlns="http://www.w3.org/2000/svg">
<path d="M39.6193 8.81818H34.1733V35H39.6193V8.81818ZM52.9308 35.3835C57.7887 35.3835 61.0614 33.0185 61.8285 29.375L56.7915 29.0426C56.2418 30.5384 54.8356 31.3182 53.0202 31.3182C50.2972 31.3182 48.5714 29.5156 48.5714 26.5881V26.5753H61.9435V25.0795C61.9435 18.4062 57.9038 15.108 52.7134 15.108C46.935 15.108 43.1893 19.2116 43.1893 25.2713C43.1893 31.4972 46.8839 35.3835 52.9308 35.3835ZM48.5714 23.2003C48.6864 20.9631 50.3867 19.1733 52.8029 19.1733C55.168 19.1733 56.8043 20.8608 56.8171 23.2003H48.5714ZM71.0969 35.3707C73.9989 35.3707 75.8782 34.1051 76.837 32.277H76.9904V35H82.1552V21.7557C82.1552 17.0767 78.1921 15.108 73.82 15.108C69.1154 15.108 66.0217 17.358 65.2674 20.9375L70.3043 21.3466C70.6751 20.0426 71.8384 19.0838 73.7944 19.0838C75.6481 19.0838 76.7092 20.017 76.7092 21.6278V21.7045C76.7092 22.9702 75.3668 23.1364 71.9535 23.4688C68.0671 23.8267 64.5771 25.1307 64.5771 29.5156C64.5771 33.402 67.3512 35.3707 71.0969 35.3707ZM72.6566 31.6122C70.9819 31.6122 69.7802 30.8324 69.7802 29.3366C69.7802 27.8026 71.0458 27.0483 72.9634 26.7798C74.1523 26.6136 76.0955 26.3324 76.7475 25.8977V27.9815C76.7475 30.0398 75.0472 31.6122 72.6566 31.6122ZM86.3803 35H91.8263V23.8906C91.8263 21.4744 93.5906 19.8125 95.994 19.8125C96.7482 19.8125 97.7837 19.9403 98.2951 20.1065V15.2741C97.8093 15.1591 97.1317 15.0824 96.582 15.0824C94.3832 15.0824 92.5806 16.3608 91.8647 18.7898H91.6602V15.3636H86.3803V35ZM106.557 23.6477C106.57 21.1165 108.078 19.6335 110.277 19.6335C112.463 19.6335 113.78 21.0653 113.767 23.4688V35H119.213V22.4972C119.213 17.9205 116.528 15.108 112.438 15.108C109.523 15.108 107.413 16.5398 106.531 18.8281H106.301V15.3636H101.111V35H106.557V23.6477Z" fill="#0E0545"/>
<path d="M116.17 35H119.085V31.983H119.443C120.108 33.0568 121.386 35.4091 125.17 35.4091C130.08 35.4091 133.506 31.4716 133.506 25.233C133.506 19.0455 130.08 15.108 125.119 15.108C121.284 15.108 120.108 17.4602 119.443 18.483H119.188V8.81818H116.17V35ZM119.136 25.1818C119.136 20.7841 121.08 17.8182 124.761 17.8182C128.597 17.8182 130.489 21.0398 130.489 25.1818C130.489 29.375 128.545 32.6989 124.761 32.6989C121.131 32.6989 119.136 29.6307 119.136 25.1818ZM143.899 35.4602C147.325 35.4602 149.115 33.6193 149.729 32.3409H149.882V35H152.899V22.0625C152.899 15.8239 148.143 15.108 145.638 15.108C142.672 15.108 139.297 16.1307 137.763 19.7102L140.626 20.733C141.291 19.3011 142.864 17.767 145.74 17.767C148.514 17.767 149.882 19.2372 149.882 21.7557V21.858C149.882 23.3153 148.399 23.1875 144.82 23.6477C141.176 24.1207 137.2 24.9261 137.2 29.4261C137.2 33.2614 140.166 35.4602 143.899 35.4602ZM144.359 32.75C141.956 32.75 140.217 31.6761 140.217 29.5795C140.217 27.2784 142.314 26.5625 144.666 26.2557C145.945 26.1023 149.371 25.7443 149.882 25.1307V27.892C149.882 30.3466 147.939 32.75 144.359 32.75ZM172.315 19.7614C171.369 16.9744 169.247 15.108 165.36 15.108C161.218 15.108 158.15 17.4602 158.15 20.7841C158.15 23.4943 159.761 25.3097 163.366 26.1534L166.639 26.9205C168.62 27.3807 169.554 28.3267 169.554 29.6818C169.554 31.3693 167.764 32.75 164.951 32.75C162.484 32.75 160.937 31.6889 160.4 29.5795L157.537 30.2955C158.24 33.6321 160.988 35.4091 165.002 35.4091C169.566 35.4091 172.673 32.9162 172.673 29.5284C172.673 26.7926 170.96 25.0668 167.457 24.2102L164.542 23.4943C162.216 22.919 161.167 22.1392 161.167 20.6307C161.167 18.9432 162.957 17.7159 165.36 17.7159C167.994 17.7159 169.081 19.1733 169.605 20.5284L172.315 19.7614ZM185.447 35.4091C189.436 35.4091 192.351 33.4148 193.271 30.4489L190.357 29.6307C189.589 31.6761 187.812 32.6989 185.447 32.6989C181.906 32.6989 179.464 30.4105 179.324 26.2045H193.578V24.9261C193.578 17.6136 189.232 15.108 185.141 15.108C179.822 15.108 176.294 19.3011 176.294 25.3352C176.294 31.3693 179.771 35.4091 185.447 35.4091ZM179.324 23.5966C179.528 20.5412 181.689 17.8182 185.141 17.8182C188.413 17.8182 190.51 20.2727 190.51 23.5966H179.324Z" fill="#0E0545"/>
<path fill-rule="evenodd" clip-rule="evenodd" d="M20.3237 12.3168C20.3237 15.2781 22.7279 17.6787 25.6935 17.6787C26.0201 17.6771 26.3458 17.6458 26.6667 17.5851V28.2153C26.6667 32.6875 24.0287 35.3333 19.5499 35.3333H9.79515C5.30468 35.3333 2.66667 32.6875 2.66667 28.2153V18.4748C2.66667 14.0026 5.30468 11.3333 9.79515 11.3333H20.4175C20.3545 11.6573 20.3231 11.9867 20.3237 12.3168ZM17.5333 25.8621L21.3438 20.9451V20.9216C21.67 20.4833 21.5867 19.8652 21.1562 19.5285C20.9478 19.3676 20.6829 19.2979 20.4222 19.3355C20.1615 19.373 19.9271 19.5144 19.7727 19.7275L16.5602 23.8602L12.9021 20.9802C12.6933 20.8175 12.4276 20.7456 12.1651 20.7809C11.9026 20.8161 11.6653 20.9555 11.5069 21.1675L7.5675 26.2485C7.42903 26.4211 7.35449 26.6361 7.35646 26.8572C7.3336 27.3042 7.61584 27.7102 8.04317 27.8451C8.47051 27.98 8.93517 27.8098 9.17376 27.4309L12.4683 23.1694L16.1264 26.0377C16.3344 26.2055 16.6019 26.2815 16.8672 26.2484C17.1325 26.2153 17.373 26.0758 17.5333 25.8621Z" fill="#200E32"/>
<ellipse opacity="0.4" cx="26" cy="12" rx="3.33333" ry="3.33333" fill="#200E32"/>
</svg>
